<?xml version="1.0" standalone="no"?>
<!DOCTYPE svg PUBLIC "-//W3C//DTD SVG 20010904//EN"
 "http://www.w3.org/TR/2001/REC-SVG-20010904/DTD/svg10.dtd">
<svg version="1.0" xmlns="http://www.w3.org/2000/svg"
 width="512.000000pt" height="512.000000pt" viewBox="0 0 512.000000 512.000000"
 preserveAspectRatio="xMidYMid meet">
<metadata>
Created by potrace 1.14, written by Peter Selinger 2001-2017
</metadata>
<g transform="translate(0.000000,512.000000) scale(0.100000,-0.100000)"
fill="#000000" stroke="none">
<path d="M0 2560 l0 -2560 2560 0 2560 0 0 2560 0 2560 -2560 0 -2560 0 0
-2560z m3535 550 c-32 -95 -56 -147 -42 -92 5 22 4 22 -11 9 -9 -8 -27 -13
-39 -12 -13 1 -23 -3 -23 -8 0 -6 -2 -8 -5 -5 -3 2 9 45 25 94 24 71 34 90 50
91 11 1 18 -2 15 -7 -3 -5 8 -2 25 6 16 9 30 20 30 26 0 6 2 9 5 6 3 -2 -11
-51 -30 -108z m-2414 80 c37 7 39 6 33 -14 -15 -46 -24 -93 -24 -131 0 -26 -3
-35 -9 -27 -4 8 -12 14 -16 14 -4 0 -12 -6 -16 -14 -7 -10 -9 -10 -9 2 0 13
-1 13 -10 0 -9 -13 -10 -13 -11 0 -1 8 -5 -3 -10 -25 -6 -29 -7 -17 -4 42 4
81 26 192 33 162 2 -13 10 -15 43 -9z m1255 -17 c30 -70 63 -174 53 -168 -5 4
-9 14 -9 23 -1 15 -2 15 -11 -1 -7 -12 -15 -15 -22 -9 -7 5 -20 8 -29 7 -12
-2 -22 11 -34 46 l-18 49 -344 0 c-301 0 -348 -2 -379 -17 -37 -17 -72 -64
-74 -98 0 -17 -2 -16 -10 5 -8 20 -12 22 -19 10 -9 -13 -10 -13 -10 0 0 13 -2
13 -9 1 -7 -11 -10 -10 -14 5 -2 12 -7 2 -12 -26 -5 -25 -10 -39 -12 -33 -3 7
0 37 7 66 13 65 58 122 114 148 43 19 114 27 86 9 -12 -7 -10 -9 7 -7 12 0 20
4 17 8 -5 9 17 6 35 -5 10 -6 12 -5 7 2 -11 19 5 14 20 -5 13 -17 14 -17 7 2
-6 18 -5 19 12 5 11 -9 16 -10 11 -2 -11 18 5 14 20 -5 13 -17 14 -17 7 2 -6
18 -5 19 12 5 11 -9 16 -10 11 -2 -11 18 5 14 20 -5 13 -17 14 -17 7 2 -6 18
-5 19 12 5 11 -9 16 -10 11 -2 -11 18 5 14 20 -5 13 -17 14 -17 7 2 -6 18 -5
19 12 5 11 -9 16 -10 11 -2 -11 18 5 14 20 -5 13 -17 14 -17 7 2 -6 18 -5 19
12 5 11 -9 16 -10 11 -2 -11 18 5 14 20 -5 13 -17 14 -17 7 2 -6 18 -5 19 12
5 11 -9 16 -10 11 -2 -11 18 5 14 20 -5 13 -17 14 -17 7 2 -6 18 -5 19 12 5
11 -9 16 -10 11 -2 -11 18 5 14 20 -5 13 -17 14 -17 7 2 -6 18 -5 19 12 5 11
-9 16 -10 11 -2 -11 18 5 14 20 -5 13 -17 14 -17 7 2 -6 18 -5 19 12 5 11 -9
16 -10 11 -2 -11 18 5 14 20 -5 13 -17 14 -17 7 2 -6 18 -5 19 12 5 11 -9 16
-10 11 -2 -11 18 5 14 20 -5 13 -17 14 -17 7 2 -6 18 -5 19 12 5 11 -9 16 -10
11 -2 -11 18 5 14 20 -5 11 -15 13 -15 9 -2 -5 12 0 16 19 15 14 -1 28 -5 31
-8 10 -10 36 2 29 13 -3 5 -3 9 0 9 3 0 13 -17 22 -37z m341 14 c12 5 14 3 8
-8 -7 -11 -5 -11 11 1 10 8 22 19 25 23 3 4 21 -36 39 -90 39 -115 45 -139 27
-99 -11 23 -15 25 -20 12 -4 -11 -12 -14 -19 -9 -26 16 -39 12 -32 -10 3 -12
4 -19 0 -16 -7 6 -76 206 -76 217 0 4 5 -1 11 -10 6 -11 16 -15 26 -11z m1170
2 c-4 -14 -2 -18 6 -11 10 8 77 23 77 17 0 -16 -78 -195 -82 -185 -2 7 -12 14
-21 16 -9 1 -15 -1 -12 -5 2 -4 -2 -8 -10 -8 -8 0 -12 5 -9 11 3 6 -2 2 -10
-8 -9 -11 -16 -24 -16 -30 0 -5 -2 -7 -5 -4 -3 3 11 47 31 99 19 52 38 102 41
112 8 24 16 21 10 -4z m-2828 -921 c0 7 13 11 31 10 27 -2 29 -5 34 -53 3 -27
5 -71 3 -96 l-2 -45 -37 6 c-34 7 -37 5 -41 -19 -2 -14 -4 39 -4 119 0 89 3
129 7 105 4 -22 8 -34 9 -27z m380 1 c1 9 10 12 26 9 14 -3 25 0 26 6 1 6 5
-5 10 -24 8 -34 10 -207 2 -182 -3 6 -19 12 -37 12 -30 0 -33 -2 -30 -27 4
-28 4 -28 -5 -3 -5 14 -9 81 -9 150 1 82 3 111 8 85 4 -22 8 -34 9 -26z m1670
-51 c2 -34 20 -18 41 35 11 28 19 43 17 31 -3 -12 1 -21 9 -21 7 0 10 5 7 10
-4 6 5 8 21 5 18 -4 30 0 36 11 19 33 9 -10 -25 -106 l-36 -98 -51 4 -51 3 7
-28 c14 -56 -3 -17 -44 95 -39 109 -50 152 -31 122 6 -9 11 -10 15 -2 5 7 15
7 32 1 23 -9 25 -8 20 12 -3 13 3 5 13 -17 11 -22 20 -48 20 -57z m436 73 c-3
-11 0 -23 6 -27 8 -4 9 -3 5 4 -5 8 2 12 19 12 18 0 24 -4 19 -12 -5 -9 -2 -9
9 1 23 18 22 14 -18 -92 l-36 -92 -41 3 c-32 4 -39 2 -33 -9 6 -11 5 -11 -4
-3 -10 9 -3 35 28 120 23 59 41 109 41 111 0 2 3 3 6 3 3 0 3 -9 -1 -19z
m-890 -23 c-8 15 27 16 42 1 9 -9 11 -6 7 12 -7 33 21 -28 57 -125 16 -43 27
-81 24 -84 -3 -3 -5 0 -5 6 0 16 -67 16 -72 0 -4 -10 -62 133 -83 202 l-8 25
22 -25 c13 -14 20 -19 16 -12z m-1528 -230 c-3 -7 -5 -2 -5 12 0 14 2 19 5 13
2 -7 2 -19 0 -25z"/>
<path d="M1588 3183 c7 -3 16 -2 19 1 4 3 -2 6 -13 5 -11 0 -14 -3 -6 -6z"/>
</g>
</svg>
